<?xml version="1.0" encoding="UTF-8"?>
<svg xmlns="http://www.w3.org/2000/svg" xmlns:xlink="http://www.w3.org/1999/xlink" viewBox="0 0 42 42" width="42px" height="42px">
<g id="surface2270255">
<path style=" stroke:none;fill-rule:nonzero;fill:rgb(100%,100%,100%);fill-opacity:1;" d="M 21 4.199219 C 11.722656 4.199219 4.199219 11.722656 4.199219 21 C 4.199219 30.277344 11.722656 37.800781 21 37.800781 C 30.277344 37.800781 37.800781 30.277344 37.800781 21 C 37.800781 11.722656 30.277344 4.199219 21 4.199219 Z M 14.695312 11.765625 C 15.875 11.765625 16.660156 12.550781 16.660156 13.597656 C 16.660156 14.644531 15.875 15.429688 14.5625 15.429688 C 13.386719 15.429688 12.601562 14.644531 12.601562 13.597656 C 12.601562 12.550781 13.386719 11.765625 14.695312 11.765625 Z M 16.800781 28 L 12.601562 28 L 12.601562 16.800781 L 16.800781 16.800781 Z M 30.800781 28 L 26.847656 28 L 26.847656 21.878906 C 26.847656 20.1875 25.792969 19.796875 25.398438 19.796875 C 25.003906 19.796875 23.683594 20.054688 23.683594 21.878906 C 23.683594 22.140625 23.683594 28 23.683594 28 L 19.601562 28 L 19.601562 16.800781 L 23.683594 16.800781 L 23.683594 18.363281 C 24.210938 17.449219 25.265625 16.800781 27.242188 16.800781 C 29.21875 16.800781 30.800781 18.363281 30.800781 21.878906 Z M 30.800781 28 "/>
</g>
</svg>
