<?xml version="1.0" encoding="UTF-8"?>
<svg xmlns="http://www.w3.org/2000/svg" xmlns:xlink="http://www.w3.org/1999/xlink" viewBox="0 0 100 100" width="100px" height="100px">
<g id="surface2073922">
<path style=" stroke:none;fill-rule:nonzero;fill:rgb(100%,100%,100%);fill-opacity:1;" d="M 93.332031 23.125 C 90.144531 24.539062 86.714844 25.492188 83.121094 25.921875 C 86.792969 23.722656 89.609375 20.238281 90.9375 16.085938 C 87.503906 18.125 83.695312 19.601562 79.644531 20.402344 C 76.398438 16.945312 71.78125 14.785156 66.667969 14.785156 C 56.847656 14.785156 48.886719 22.75 48.886719 32.566406 C 48.886719 33.960938 49.046875 35.320312 49.347656 36.617188 C 34.570312 35.875 21.46875 28.796875 12.695312 18.035156 C 11.171875 20.664062 10.292969 23.714844 10.292969 26.980469 C 10.292969 33.148438 13.429688 38.589844 18.199219 41.777344 C 15.285156 41.683594 12.542969 40.882812 10.148438 39.554688 C 10.148438 39.628906 10.148438 39.699219 10.148438 39.777344 C 10.148438 48.394531 16.273438 55.578125 24.410156 57.210938 C 22.921875 57.617188 21.347656 57.832031 19.722656 57.832031 C 18.578125 57.832031 17.464844 57.71875 16.378906 57.515625 C 18.644531 64.578125 25.210938 69.722656 32.988281 69.867188 C 26.90625 74.636719 19.238281 77.480469 10.90625 77.480469 C 9.472656 77.480469 8.058594 77.398438 6.664062 77.230469 C 14.535156 82.273438 23.875 85.214844 33.921875 85.214844 C 66.625 85.214844 84.507812 58.125 84.507812 34.625 C 84.507812 33.855469 84.488281 33.089844 84.457031 32.328125 C 87.933594 29.816406 90.949219 26.6875 93.332031 23.125 Z M 93.332031 23.125 "/>
</g>
</svg>
