<?xml version="1.0" encoding="UTF-8"?>
<svg xmlns="http://www.w3.org/2000/svg" xmlns:xlink="http://www.w3.org/1999/xlink" viewBox="0 0 42 42" width="42px" height="42px">
<g id="surface2284423">
<path style=" stroke:none;fill-rule:nonzero;fill:rgb(100%,100%,100%);fill-opacity:1;" d="M 19.074219 3.675781 C 11.023438 4.550781 4.550781 11.023438 3.675781 18.898438 C 2.800781 27.125 7.523438 34.476562 14.699219 37.273438 C 15.226562 37.449219 15.75 37.101562 15.75 36.398438 L 15.75 33.601562 C 15.75 33.601562 15.050781 33.773438 14.175781 33.773438 C 11.726562 33.773438 10.675781 31.675781 10.5 30.449219 C 10.324219 29.75 9.976562 29.226562 9.449219 28.699219 C 8.925781 28.523438 8.75 28.523438 8.75 28.351562 C 8.75 28 9.273438 28 9.449219 28 C 10.5 28 11.375 29.226562 11.726562 29.75 C 12.601562 31.148438 13.648438 31.5 14.175781 31.5 C 14.875 31.5 15.398438 31.324219 15.75 31.148438 C 15.925781 29.925781 16.449219 28.699219 17.5 28 C 13.476562 27.125 10.5 24.851562 10.5 21 C 10.5 19.074219 11.375 17.148438 12.601562 15.75 C 12.425781 15.398438 12.25 14.523438 12.25 13.300781 C 12.25 12.601562 12.25 11.550781 12.773438 10.5 C 12.773438 10.5 15.226562 10.5 17.675781 12.773438 C 18.550781 12.425781 19.773438 12.25 21 12.25 C 22.226562 12.25 23.449219 12.425781 24.5 12.773438 C 26.773438 10.5 29.398438 10.5 29.398438 10.5 C 29.75 11.550781 29.75 12.601562 29.75 13.300781 C 29.75 14.699219 29.574219 15.398438 29.398438 15.75 C 30.625 17.148438 31.5 18.898438 31.5 21 C 31.5 24.851562 28.523438 27.125 24.5 28 C 25.550781 28.875 26.25 30.449219 26.25 32.023438 L 26.25 36.574219 C 26.25 37.101562 26.773438 37.625 27.476562 37.449219 C 33.949219 34.824219 38.5 28.523438 38.5 21.175781 C 38.5 10.675781 29.574219 2.449219 19.074219 3.675781 Z M 19.074219 3.675781 "/>
</g>
</svg>
