<?xml version="1.0" encoding="UTF-8"?>
<svg xmlns="http://www.w3.org/2000/svg" xmlns:xlink="http://www.w3.org/1999/xlink" viewBox="0 0 42 42" width="42px" height="42px">
<g id="surface2285142">
<path style=" stroke:none;fill-rule:nonzero;fill:rgb(100%,100%,100%);fill-opacity:1;" d="M 39.199219 9.710938 C 37.859375 10.308594 36.421875 10.707031 34.910156 10.886719 C 36.453125 9.964844 37.636719 8.5 38.195312 6.757812 C 36.75 7.613281 35.152344 8.234375 33.449219 8.570312 C 32.089844 7.117188 30.148438 6.210938 28 6.210938 C 23.875 6.210938 20.53125 9.554688 20.53125 13.679688 C 20.53125 14.261719 20.597656 14.835938 20.726562 15.378906 C 14.519531 15.066406 9.015625 12.09375 5.332031 7.574219 C 4.691406 8.679688 4.324219 9.960938 4.324219 11.332031 C 4.324219 13.921875 5.640625 16.207031 7.644531 17.546875 C 6.421875 17.507812 5.269531 17.171875 4.261719 16.613281 C 4.261719 16.644531 4.261719 16.675781 4.261719 16.707031 C 4.261719 20.324219 6.835938 23.34375 10.253906 24.027344 C 9.625 24.199219 8.964844 24.289062 8.285156 24.289062 C 7.804688 24.289062 7.335938 24.242188 6.878906 24.15625 C 7.832031 27.125 10.589844 29.285156 13.855469 29.34375 C 11.300781 31.347656 8.082031 32.542969 4.582031 32.542969 C 3.980469 32.542969 3.382812 32.507812 2.796875 32.4375 C 6.105469 34.554688 10.027344 35.789062 14.246094 35.789062 C 27.984375 35.789062 35.492188 24.410156 35.492188 14.542969 C 35.492188 14.21875 35.484375 13.898438 35.472656 13.578125 C 36.933594 12.523438 38.199219 11.207031 39.199219 9.710938 Z M 39.199219 9.710938 "/>
</g>
</svg>
